<?xml version="1.0" encoding="UTF-8"?>
<svg version="1.1" xmlns="http://www.w3.org/2000/svg" width="1024" height="792">
<path d="M0 0 C337.92 0 675.84 0 1024 0 C1024 261.36 1024 522.72 1024 792 C686.08 792 348.16 792 0 792 C0 530.64 0 269.28 0 0 Z " fill="#FEFEFE" transform="translate(0,0)"/>
<path d="M0 0 C5.80384613 4.82333288 10.09479445 10.47599209 13.4765625 17.21484375 C13.81071796 17.85443496 14.14487343 18.49402617 14.48915482 19.15299892 C18.9054771 29.10455424 18.04965581 39.75688899 18.02246094 50.41625977 C18.03120893 52.69506495 18.04169111 54.97386402 18.0537529 57.25265408 C18.08175722 63.50281478 18.08496476 69.75277831 18.0840168 76.00299263 C18.08694989 82.05907742 18.10854241 88.11507828 18.12951064 94.17112042 C18.17429823 107.32773488 18.19635514 120.48431368 18.20883393 133.64099409 C18.21983196 145.16171742 18.2386267 156.68239606 18.26501465 168.20309448 C18.26675531 168.96800249 18.26849598 169.7329105 18.27028939 170.52099755 C18.27736265 173.62674204 18.28446394 176.73248647 18.29161094 179.8382308 C18.36052599 209.8637893 18.40358617 239.88934199 18.43491888 269.91496074 C18.46051281 294.35644493 18.49934707 318.79787127 18.54949623 343.23931722 C18.61190628 373.65786451 18.66291686 404.07639836 18.69475174 434.49499416 C18.69557581 435.27936659 18.69639988 436.06373902 18.69724892 436.87188031 C18.69807151 437.65486868 18.69889409 438.43785705 18.6997416 439.24457234 C18.70056364 440.02617135 18.70138568 440.80777035 18.70223263 441.61305418 C18.70388363 443.18726537 18.70552277 444.76147658 18.70714995 446.33568779 C18.71859921 457.30467268 18.73566081 468.27363597 18.75664532 479.24260654 C18.78369634 493.38817169 18.80088468 507.53369028 18.8007021 521.67928326 C18.80087067 528.50423235 18.80567421 535.32909568 18.82411194 542.15402222 C18.84048608 548.40671521 18.84286028 554.65925262 18.83413172 560.91195953 C18.83339511 563.1728222 18.83771781 565.43369345 18.84765005 567.69453442 C18.92709931 586.88064696 17.42566963 602.55291195 3.6015625 617.21484375 C-8.88723652 628.96900753 -23.87827729 630.72871632 -40.3046875 630.48828125 C-52.92651078 630.03299405 -64.15638462 624.11864013 -72.8359375 615.02734375 C-81.2577325 604.89702886 -86.00518092 592.50387949 -85.90375423 579.41082287 C-85.90841415 578.46023254 -85.91307407 577.50964221 -85.9178752 576.53024611 C-85.92980933 573.35052266 -85.92043567 570.17122774 -85.91111755 566.99150085 C-85.91529115 564.68651962 -85.92076881 562.38154045 -85.92743737 560.07656509 C-85.94190726 553.74654592 -85.93764234 547.41665679 -85.93027055 541.08663046 C-85.92456682 534.95969517 -85.93584733 528.83277848 -85.94517817 522.70585147 C-85.96483982 509.40149186 -85.96719342 496.09717123 -85.96198297 482.79280056 C-85.95742478 471.14801807 -85.95802624 459.503251 -85.96382332 447.85846901 C-85.96458019 446.2961025 -85.96533617 444.73373598 -85.96609126 443.17136947 C-85.96723647 440.81697733 -85.96838634 438.46258519 -85.96955051 436.10819307 C-85.980255 414.22004718 -85.98498134 392.33190643 -85.97708035 370.44375896 C-85.97678317 369.61873684 -85.976486 368.79371472 -85.97617982 367.94369193 C-85.97373092 361.24406091 -85.97111931 354.54442994 -85.96849569 347.84479898 C-85.95839453 321.71527452 -85.96674637 295.58581433 -85.98999023 269.45629883 C-86.01606829 240.09328853 -86.02890922 210.73031692 -86.02180248 181.36729461 C-86.02108643 178.23575168 -86.02041205 175.10420874 -86.01976204 171.97266579 C-86.01959223 171.20161225 -86.01942242 170.43055871 -86.01924747 169.63613991 C-86.01694542 158.00175792 -86.02491701 146.36741188 -86.03805351 134.73303795 C-86.05296916 121.49943937 -86.0538021 108.26592499 -86.0359826 95.03232821 C-86.02726504 88.28050671 -86.02535541 81.52885562 -86.04063416 74.77704048 C-86.05445168 68.59440328 -86.04975539 62.41206498 -86.03039492 56.2294452 C-86.02662563 53.9946577 -86.02958352 51.75984642 -86.04000657 49.52508005 C-86.1182502 31.4625219 -84.14978441 17.15782911 -71.1484375 3.40234375 C-51.86684472 -14.42886373 -21.24724998 -15.03094929 0 0 Z " fill="#010101" transform="translate(904.5234375,84.78515625)"/>
<path d="M0 0 C1.05960938 -0.01224609 2.11921875 -0.02449219 3.2109375 -0.03710938 C17.03491243 -0.06283638 29.0663326 4.25546367 39.21875 13.9296875 C49.48134224 25.33695349 53.41214284 38.47368005 53.38142776 53.5130558 C53.3834804 54.44836598 53.38553303 55.38367617 53.38764787 56.34732908 C53.39331892 59.49301 53.39186048 62.63864714 53.39044189 65.78433228 C53.39302547 68.05784861 53.3960386 70.33136449 53.3994453 72.60487974 C53.40751945 78.86182728 53.4093051 85.11876336 53.41004276 91.37571549 C53.41170268 97.42787861 53.41802023 103.48003582 53.42412117 109.53219565 C53.44017566 125.74596444 53.44608379 141.95973229 53.45086992 158.1735076 C53.45320638 165.84463504 53.45680908 173.51576173 53.4605653 181.18688859 C53.47340019 207.44930172 53.48411953 233.71171443 53.4875679 259.97413063 C53.48778953 261.62250633 53.48801132 263.27088203 53.48823325 264.91925772 C53.48845389 266.57159831 53.48867438 268.22393889 53.4888947 269.87627947 C53.48933725 273.19111991 53.48978437 276.50596035 53.49023438 279.82080078 C53.49039846 281.05363089 53.49039846 281.05363089 53.49056586 282.31136666 C53.4941964 308.96040236 53.51011667 335.60941085 53.53342474 362.25843613 C53.55802613 390.43771519 53.57174088 418.61697871 53.57293582 446.79626882 C53.57310727 449.8902247 53.5733227 452.98418057 53.57357025 456.07813644 C53.5736539 457.22085292 53.5736539 457.22085292 53.57373925 458.38665459 C53.57488941 470.6410277 53.5859084 482.89537287 53.60045731 495.14973654 C53.61483056 507.4692634 53.6180546 519.78875447 53.61001733 532.10828741 C53.60595653 538.7810704 53.6070544 545.45377942 53.62107468 552.1265564 C53.63379624 558.23709636 53.63263121 564.34747164 53.62048396 570.45801131 C53.61852397 572.66664616 53.62161933 574.87529259 53.63032833 577.08391114 C53.69964576 595.85379248 52.08315548 612.93193642 38.43359375 627.2265625 C34.69073595 630.58776933 30.74058599 632.95189892 26.25 635.1875 C25.36441406 635.67476562 24.47882813 636.16203125 23.56640625 636.6640625 C11.09598796 642.59289351 -5.55070544 642.40987042 -18.5625 638.1875 C-32.47743442 632.15149564 -41.87956319 622.49299034 -47.83984375 608.6328125 C-49.17423781 605.04770229 -49.87469857 601.91081267 -49.87995183 598.08171749 C-49.88348025 597.2659223 -49.88700867 596.45012711 -49.89064401 595.60961086 C-49.88944624 594.71709391 -49.88824846 593.82457696 -49.88701439 592.90501404 C-49.88966622 591.95006269 -49.89231804 590.99511134 -49.89505023 590.01122206 C-49.90275655 586.78668707 -49.90330291 583.56219008 -49.90390015 580.33764648 C-49.90791389 578.01223362 -49.91235197 575.68682146 -49.9171797 573.36141014 C-49.92790284 567.62475374 -49.93390353 561.88810577 -49.93788858 556.15144104 C-49.94289798 549.28154439 -49.95362557 542.41165961 -49.96437032 535.54176997 C-49.99000103 518.93533891 -50.00503631 502.32890323 -50.01788078 485.72245807 C-50.02213553 480.22195167 -50.02670126 474.72144561 -50.0314641 469.22093964 C-50.05672479 439.97401731 -50.07877277 410.72709441 -50.09119225 381.48016357 C-50.09411357 374.70373533 -50.09708109 367.92730711 -50.10009766 361.15087891 C-50.10046857 360.30899344 -50.10083947 359.46710797 -50.10122162 358.59971082 C-50.11337582 331.30676645 -50.14431768 304.01388658 -50.18601918 276.72097249 C-50.22881287 248.66205319 -50.25543403 220.60316795 -50.26066696 192.54421512 C-50.2614074 188.58051227 -50.26231808 184.61680948 -50.26332474 180.65310669 C-50.26351535 179.87302175 -50.26370597 179.0929368 -50.26390236 178.28921292 C-50.26741485 165.73901858 -50.28770776 153.18890506 -50.31412137 140.6387404 C-50.34027659 128.0209808 -50.34798896 115.40331453 -50.33702008 102.7855317 C-50.33157248 95.95067702 -50.33409489 89.11605667 -50.35948563 82.28124046 C-50.3819415 76.02249706 -50.381266 69.7641956 -50.36228175 63.50544465 C-50.35947668 61.24291009 -50.3651083 58.98034581 -50.38009469 56.71785915 C-50.51506789 35.01139083 -50.51506789 35.01139083 -44.75 25.1875 C-44.27383063 24.34798609 -43.79766125 23.50847218 -43.30706251 22.64351845 C-36.87449724 11.78683978 -25.86809098 4.30668061 -13.88891602 0.61376953 C-9.3364811 -0.29349578 -4.62476401 0.00277264 0 0 Z " fill="#010101" transform="translate(153.75,74.8125)"/>
<path d="M0 0 C1.5459082 -0.00386719 1.5459082 -0.00386719 3.12304688 -0.0078125 C4.18974609 -0.00007812 5.25644531 0.00765625 6.35546875 0.015625 C7.41056641 0.00789062 8.46566406 0.00015625 9.55273438 -0.0078125 C23.90944984 0.02796748 35.84017214 4.74660386 46.2890625 14.79296875 C57.49837875 27.09019091 60.15616854 40.93088725 60.05090332 57.08506775 C60.05552191 58.6454902 60.06188121 60.20590829 60.0698123 61.76631743 C60.08639756 66.01983267 60.0783089 70.27298557 60.06586742 74.52650154 C60.05677457 79.12715321 60.07080761 83.72774486 60.08178711 88.3283844 C60.09953233 97.32773823 60.09575008 106.32695827 60.08413655 115.32631724 C60.07508617 122.64378543 60.07388516 129.96121625 60.07823181 137.27868843 C60.07884474 138.32197149 60.07945768 139.36525455 60.08008918 140.44015225 C60.08136814 142.55987808 60.082665 144.6796039 60.08397955 146.79932971 C60.09537378 166.65575717 60.08229009 186.51211066 60.06077808 206.36852599 C60.04291079 223.38724122 60.04601043 240.40584729 60.06445312 257.42456055 C60.08588481 277.21060642 60.09427249 296.99658751 60.08200407 316.78264338 C60.08072994 318.89467751 60.07947246 321.00671165 60.07823181 323.1187458 C60.07761471 324.15777468 60.07699761 325.19680355 60.07636181 326.26731814 C60.0729156 333.5711259 60.07872154 340.8748924 60.08815002 348.17869377 C60.09939706 357.08666761 60.09627335 365.99450055 60.07502705 374.90245836 C60.06455255 379.44298436 60.06033296 383.98327591 60.07362366 388.5237999 C60.08562866 392.68824544 60.07885299 396.85224137 60.05771345 401.01664669 C60.05328142 402.51514692 60.05543618 404.01368591 60.0652166 405.51216077 C60.16092799 421.40790767 56.87910952 435.66954716 45.79296875 447.515625 C33.33205618 459.28690691 18.96682458 461.80774889 2.41796875 461.5390625 C-8.84276125 461.0954846 -17.71231996 457.31835192 -26.45703125 450.265625 C-27.34390625 449.6675 -28.23078125 449.069375 -29.14453125 448.453125 C-38.55035446 439.55572466 -43.52707774 427.39659578 -44.08623695 414.58219814 C-44.1316216 411.75105552 -44.11467534 408.92270796 -44.09194946 406.09141541 C-44.09772392 404.50466524 -44.10567386 402.91792179 -44.11558568 401.33119208 C-44.13630055 397.00953105 -44.12621463 392.68842788 -44.11065459 388.36676586 C-44.09928159 383.69115442 -44.11683306 379.01563493 -44.1305542 374.34004211 C-44.15272744 365.1960886 -44.148012 356.05234089 -44.13349099 346.90837949 C-44.1221761 339.47412047 -44.12067757 332.03991893 -44.12611008 324.60565376 C-44.12687624 323.5455653 -44.12764241 322.48547684 -44.12843179 321.39326449 C-44.13003049 319.23939246 -44.13165156 317.08552044 -44.13329475 314.93164844 C-44.14753474 294.75952823 -44.13118663 274.58752184 -44.10429291 254.4154203 C-44.08195251 237.12348822 -44.08583904 219.83172398 -44.10888672 202.53979492 C-44.13567005 182.43585037 -44.14616501 162.33200542 -44.1308254 142.22804552 C-44.12923273 140.08262385 -44.12766088 137.93720217 -44.12611008 135.79178047 C-44.1253387 134.73632121 -44.12456732 133.68086196 -44.12377257 132.59341909 C-44.11946342 125.17140046 -44.12672512 117.74944525 -44.13850784 110.32743645 C-44.15255939 101.2777966 -44.14867699 92.22837347 -44.12210412 83.17875832 C-44.10900216 78.56539722 -44.10375156 73.95239693 -44.12034988 69.33903885 C-44.13533769 65.10921568 -44.12691723 60.88008499 -44.10046212 56.65032393 C-44.09491436 55.12697492 -44.09763354 53.60356642 -44.10984106 52.08025622 C-44.21885541 37.33663473 -40.3679034 25.40884728 -30.45703125 14.265625 C-24.44043481 8.41642977 -18.35100013 4.94559427 -10.45703125 2.265625 C-9.69664551 1.9248291 -8.93625977 1.5840332 -8.15283203 1.23291016 C-5.25345436 0.19257921 -3.07015773 0.00746025 0 0 Z " fill="#000000" transform="translate(685.45703125,253.734375)"/>
<path d="M0 0 C0.96905273 0.00942627 1.93810547 0.01885254 2.93652344 0.02856445 C17.87220273 0.34296025 29.97145777 4.57491542 40.92578125 14.91015625 C48.88817464 23.58765233 53.30346677 34.18304457 53.32172108 45.90414429 C53.32407331 46.54928913 53.32642554 47.19443397 53.32884905 47.85912865 C53.33551299 50.02377855 53.33508161 52.18836807 53.33467102 54.35302734 C53.33797127 55.91962748 53.34169718 57.48622677 53.3458125 59.05282497 C53.35582234 63.36043116 53.35954766 67.66802341 53.36220181 71.97563958 C53.3661079 76.62070319 53.37568605 81.2657558 53.38441467 85.91081238 C53.40417085 97.1302439 53.41424439 108.34967632 53.42314246 119.56912088 C53.4275269 124.85425786 53.43289332 130.13939384 53.43813133 135.42453003 C53.45514304 152.99661552 53.46963672 170.56870039 53.47688007 188.14079285 C53.47878993 192.70014446 53.48071027 197.25949606 53.48266602 201.81884766 C53.48314976 202.95203434 53.4836335 204.08522103 53.4841319 205.2527467 C53.49243037 223.60537958 53.51776447 241.95794724 53.55024669 260.31055164 C53.58333286 279.15825085 53.60133026 298.00591693 53.60452431 316.85364532 C53.606688 327.43370101 53.61541601 338.0136616 53.64098549 348.59368896 C53.66271376 357.60507048 53.67073243 366.6163338 53.66101871 375.62773854 C53.65648014 380.22278085 53.65833437 384.81757939 53.67778015 389.41258812 C53.69545648 393.62600374 53.69437812 397.83899857 53.67888286 402.05241895 C53.67651354 403.56999253 53.68079498 405.08759559 53.69271151 406.60512424 C53.80780565 422.24086033 50.34450229 435.99233022 39.4375 447.625 C27.91949461 458.48483365 14.67104489 461.74872086 -0.80078125 461.58203125 C-15.00480087 461.02400397 -27.30789487 456.03184688 -37.06640625 445.54296875 C-44.95169891 435.75250471 -48.92405916 425.28260558 -48.94951439 412.7043972 C-48.95216622 412.05611055 -48.95481804 411.40782389 -48.95755023 410.73989218 C-48.96520124 408.57058836 -48.96580078 406.40134153 -48.96640015 404.23202515 C-48.97041752 402.65972429 -48.9748562 401.08742446 -48.9796797 399.51512587 C-48.99162003 395.19644887 -48.99728772 390.87778302 -49.00186086 386.55909276 C-49.00782645 381.90043105 -49.01943373 377.24178262 -49.03015137 372.58312988 C-49.05465103 361.33446149 -49.06929769 350.08578872 -49.08221143 338.83710188 C-49.08592474 335.65935563 -49.08989785 332.48160982 -49.0939641 329.303864 C-49.11919884 309.56395115 -49.14124849 289.82403758 -49.15369225 270.08411217 C-49.15662185 265.5139198 -49.15958353 260.94372746 -49.16259766 256.37353516 C-49.16334371 255.23766105 -49.16408976 254.10178694 -49.16485842 252.9314924 C-49.17751296 234.52973256 -49.21073923 216.12806932 -49.25239949 197.72635464 C-49.29483352 178.82777872 -49.31838886 159.92925224 -49.32361281 141.0306288 C-49.32702493 130.42209042 -49.33875701 119.81370309 -49.37171555 109.20521164 C-49.39973715 100.17111947 -49.410706 91.13720935 -49.39952008 82.1030771 C-49.39433917 77.49594703 -49.39718344 72.88919808 -49.42198563 68.28212357 C-49.44453133 64.05885598 -49.44369734 59.83624213 -49.42478175 55.61296268 C-49.42198921 54.09072231 -49.42753867 52.5684371 -49.44259469 51.04626863 C-49.58000348 36.24086643 -45.24560215 24.20475112 -34.90234375 13.375 C-24.86580949 4.11664633 -13.56489815 -0.20406325 0 0 Z " fill="#000000" transform="translate(330.8125,74.625)"/>
<path d="M0 0 C11.76955097 8.79192505 18.51822146 20.79349583 21.046875 35.13671875 C21.29443384 37.92306962 21.3182183 40.68267128 21.30084229 43.47874451 C21.30396227 44.26750428 21.30708225 45.05626405 21.31029677 45.86892563 C21.31820866 48.4848797 21.31197995 51.10059737 21.30566406 53.71655273 C21.30837698 55.60311009 21.31193959 57.48966639 21.31628418 59.3762207 C21.32537532 64.48159485 21.32187728 69.58688786 21.31552601 74.69226336 C21.3104483 80.04607019 21.31516245 85.39987026 21.31829834 90.75367737 C21.32193314 99.74408205 21.31715196 108.73445383 21.30761719 117.72485352 C21.2967369 128.10347744 21.3002571 138.48202275 21.31127 148.86064476 C21.32036067 157.78660548 21.32161935 166.71254261 21.31639266 175.63850647 C21.31328233 180.96291489 21.31283776 186.28728642 21.31946564 191.61169243 C21.32526426 196.61943343 21.32119627 201.6270736 21.30967712 206.63480377 C21.30704383 208.46731207 21.30777276 210.29982892 21.31220245 212.13233376 C21.35025752 229.48142904 19.8250662 243.63982154 8.046875 257.13671875 C7.56992187 257.74257813 7.09296875 258.3484375 6.6015625 258.97265625 C0.26331633 266.30643847 -11.30357715 272.24018374 -20.953125 273.13671875 C-38.0003044 274.18975971 -51.46471688 273.61965612 -64.953125 262.13671875 C-66.2215625 261.27046875 -66.2215625 261.27046875 -67.515625 260.38671875 C-73.78178786 254.60256842 -77.9872893 247.06435542 -80.953125 239.13671875 C-81.29460886 238.27280108 -81.63609272 237.40888342 -81.98792458 236.51878643 C-83.11633702 232.56482293 -83.23712851 228.89376208 -83.22055054 224.82051086 C-83.22508165 223.99826796 -83.22961276 223.17602506 -83.23428118 222.32886571 C-83.24691218 219.58157227 -83.24530564 216.83447741 -83.24365234 214.0871582 C-83.2496385 212.11399583 -83.25644425 210.14083579 -83.26400757 208.16767883 C-83.28166825 202.81208191 -83.28636305 197.45654891 -83.28763914 192.10092568 C-83.28906153 188.7522816 -83.29333286 185.40365372 -83.29863358 182.05501366 C-83.31713576 170.36487167 -83.32530416 158.67477528 -83.32373047 146.98461914 C-83.32252979 136.10103654 -83.34361724 125.21765248 -83.3752178 114.33412009 C-83.40140575 104.98017965 -83.41209667 95.62630393 -83.41081965 86.27232713 C-83.41031066 80.69012516 -83.415959 75.10809956 -83.43717575 69.52593422 C-83.45659987 64.27192386 -83.45665397 59.01825733 -83.44214249 53.76423454 C-83.44005831 51.84183879 -83.44473183 49.91942129 -83.4568634 47.99706268 C-83.51573796 38.01699166 -83.50245216 29.28697332 -78.953125 20.13671875 C-78.48390625 19.15316406 -78.0146875 18.16960937 -77.53125 17.15625 C-69.89746557 4.47069647 -59.29299718 -3.56767899 -44.8815918 -7.26782227 C-29.25983817 -10.44426721 -13.50030358 -8.51804869 0 0 Z " fill="#010101" transform="translate(543.953125,82.86328125)"/>
<path d="M0 0 C1.21300781 -0.03738281 2.42601562 -0.07476562 3.67578125 -0.11328125 C17.82262916 -0.24916346 29.58783789 4.77648582 39.84375 14.47265625 C52.65331602 28.02307404 54.07745581 43.50636061 54.01318359 61.24194336 C54.01725484 63.13540448 54.02259981 65.02886322 54.02911377 66.9223175 C54.0427283 72.03807103 54.03751276 77.15364195 54.02797651 82.26939845 C54.02034832 87.63961046 54.02743437 93.00980748 54.03213501 98.38002014 C54.03758385 107.39717395 54.03042432 116.4142539 54.01611328 125.43139648 C53.99979344 135.83391332 54.005074 146.23625368 54.0215925 156.63876623 C54.03523813 165.59283226 54.03711185 174.54684537 54.02927649 183.50091845 C54.02461624 188.83879108 54.02392948 194.17658096 54.03388596 199.51444817 C54.04259805 204.53540047 54.03645665 209.55612689 54.01920319 214.57705498 C54.0152607 216.4119479 54.01633367 218.24686007 54.02299118 220.08174515 C54.07904391 237.10990842 51.96524203 253.6080859 39.6484375 266.5703125 C26.80791791 278.02266781 12.57894358 281.41942991 -4.14453125 280.79296875 C-17.56034267 279.93479912 -29.32654589 274.37960749 -38.5625 264.56640625 C-41.69672727 260.77696337 -44.25815117 256.81224081 -46.375 252.375 C-46.70356743 251.71104406 -47.03213486 251.04708813 -47.37065887 250.36301231 C-51.3866619 241.06578292 -50.93888095 231.81302672 -50.89257812 221.88134766 C-50.89800601 219.92054222 -50.9051324 217.95974086 -50.91381836 215.99894714 C-50.93197766 210.69920523 -50.92501412 205.39977651 -50.91230202 200.10002947 C-50.90213309 194.5367607 -50.91157874 188.97351769 -50.91784668 183.4102478 C-50.92511298 174.06772072 -50.91556335 164.72532033 -50.89648438 155.3828125 C-50.87473042 144.60650388 -50.88176049 133.8304982 -50.90379 123.05419695 C-50.92198823 113.77823865 -50.92448035 104.50237114 -50.91403532 95.22640073 C-50.90782304 89.69676783 -50.90690186 84.16727693 -50.92018127 78.63765335 C-50.9318032 73.43524689 -50.92359885 68.23322778 -50.90060425 63.03086281 C-50.89535033 61.13027779 -50.89677348 59.22965974 -50.90565491 57.32908821 C-50.97041098 42.05405898 -49.58324032 29.55574891 -39.375 17.375 C-38.72789062 16.59253906 -38.08078125 15.81007813 -37.4140625 15.00390625 C-27.21390974 3.76098694 -14.75148338 0.16711258 0 0 Z " fill="#010101" transform="translate(511.375,434.625)"/>
</svg>
